<svg xmlns="http://www.w3.org/2000/svg" xmlns:xlink="http://www.w3.org/1999/xlink" width="100" zoomAndPan="magnify" viewBox="0 0 75 30.000001" height="40" preserveAspectRatio="xMidYMid meet" version="1.0"><defs><clipPath id="b89f4222f6"><path d="M 24.832031 11.453125 L 30.636719 11.453125 L 30.636719 17.261719 L 24.832031 17.261719 Z M 24.832031 11.453125 " clip-rule="nonzero"/></clipPath><clipPath id="c796692f2c"><path d="M 27 11.453125 L 30 11.453125 L 30 13 L 27 13 Z M 27 11.453125 " clip-rule="nonzero"/></clipPath><clipPath id="946c72f758"><path d="M 29 12 L 30.636719 12 L 30.636719 14 L 29 14 Z M 29 12 " clip-rule="nonzero"/></clipPath><clipPath id="9c7e89669a"><path d="M 25 13 L 30.636719 13 L 30.636719 17 L 25 17 Z M 25 13 " clip-rule="nonzero"/></clipPath><clipPath id="01523d811d"><path d="M 34.476562 11.453125 L 40.28125 11.453125 L 40.28125 17.261719 L 34.476562 17.261719 Z M 34.476562 11.453125 " clip-rule="nonzero"/></clipPath><clipPath id="73aa892602"><path d="M 37 11.453125 L 40 11.453125 L 40 13 L 37 13 Z M 37 11.453125 " clip-rule="nonzero"/></clipPath><clipPath id="ab7e4816bb"><path d="M 34.476562 13 L 40.28125 13 L 40.28125 17 L 34.476562 17 Z M 34.476562 13 " clip-rule="nonzero"/></clipPath><clipPath id="89a36a3098"><path d="M 44.042969 11.453125 L 49.851562 11.453125 L 49.851562 17.261719 L 44.042969 17.261719 Z M 44.042969 11.453125 " clip-rule="nonzero"/></clipPath><clipPath id="47976ef44f"><path d="M 46 11.453125 L 49 11.453125 L 49 13 L 46 13 Z M 46 11.453125 " clip-rule="nonzero"/></clipPath><clipPath id="7000eda909"><path d="M 48 12 L 49.851562 12 L 49.851562 14 L 48 14 Z M 48 12 " clip-rule="nonzero"/></clipPath><clipPath id="da074b49b3"><path d="M 44.042969 13 L 49.851562 13 L 49.851562 17 L 44.042969 17 Z M 44.042969 13 " clip-rule="nonzero"/></clipPath></defs><g clip-path="url(#b89f4222f6)"><path fill="#723600" d="M 30.636719 14.355469 C 30.636719 15.957031 29.335938 17.261719 27.734375 17.261719 C 26.132812 17.261719 24.832031 15.957031 24.832031 14.355469 C 24.832031 12.753906 26.132812 11.453125 27.734375 11.453125 C 29.335938 11.453125 30.636719 12.753906 30.636719 14.355469 Z M 30.636719 14.355469 " fill-opacity="1" fill-rule="nonzero"/></g><g clip-path="url(#c796692f2c)"><path fill="#d58600" d="M 29.371094 12.675781 C 29.289062 12.933594 28.867188 13.035156 28.429688 12.898438 C 27.988281 12.761719 27.691406 12.445312 27.769531 12.1875 C 27.851562 11.929688 28.269531 11.832031 28.710938 11.964844 C 29.152344 12.101562 29.449219 12.417969 29.371094 12.675781 Z M 29.371094 12.675781 " fill-opacity="1" fill-rule="nonzero"/></g><g clip-path="url(#946c72f758)"><path fill="#d58600" d="M 30.148438 13.324219 C 30.113281 13.449219 29.910156 13.496094 29.703125 13.429688 C 29.488281 13.367188 29.347656 13.214844 29.386719 13.089844 C 29.425781 12.96875 29.628906 12.921875 29.835938 12.988281 C 30.046875 13.050781 30.1875 13.203125 30.148438 13.324219 Z M 30.148438 13.324219 " fill-opacity="1" fill-rule="nonzero"/></g><g clip-path="url(#9c7e89669a)"><path fill="#6b2800" d="M 27.839844 16.300781 C 26.503906 16.300781 25.410156 15.28125 25.273438 13.976562 C 25.265625 14.070312 25.246094 14.15625 25.246094 14.25 C 25.246094 15.683594 26.40625 16.84375 27.839844 16.84375 C 29.269531 16.84375 30.433594 15.683594 30.433594 14.25 C 30.433594 14.15625 30.414062 14.070312 30.40625 13.976562 C 30.269531 15.28125 29.179688 16.300781 27.839844 16.300781 Z M 27.839844 16.300781 " fill-opacity="1" fill-rule="nonzero"/></g><g clip-path="url(#01523d811d)"><path fill="#723600" d="M 40.28125 14.355469 C 40.28125 15.957031 38.980469 17.261719 37.382812 17.261719 C 35.777344 17.261719 34.476562 15.957031 34.476562 14.355469 C 34.476562 12.753906 35.777344 11.453125 37.382812 11.453125 C 38.980469 11.453125 40.28125 12.753906 40.28125 14.355469 Z M 40.28125 14.355469 " fill-opacity="1" fill-rule="nonzero"/></g><g clip-path="url(#73aa892602)"><path fill="#d58600" d="M 39.015625 12.675781 C 38.933594 12.933594 38.511719 13.035156 38.074219 12.898438 C 37.632812 12.761719 37.335938 12.445312 37.414062 12.1875 C 37.496094 11.929688 37.914062 11.832031 38.355469 11.964844 C 38.796875 12.101562 39.09375 12.417969 39.015625 12.675781 Z M 39.015625 12.675781 " fill-opacity="1" fill-rule="nonzero"/></g><path fill="#d58600" d="M 39.792969 13.324219 C 39.757812 13.449219 39.554688 13.496094 39.347656 13.429688 C 39.136719 13.367188 38.992188 13.214844 39.03125 13.089844 C 39.070312 12.96875 39.273438 12.921875 39.480469 12.988281 C 39.691406 13.050781 39.832031 13.203125 39.792969 13.324219 Z M 39.792969 13.324219 " fill-opacity="1" fill-rule="nonzero"/><g clip-path="url(#ab7e4816bb)"><path fill="#6b2800" d="M 37.484375 16.300781 C 36.148438 16.300781 35.054688 15.28125 34.917969 13.976562 C 34.910156 14.070312 34.890625 14.15625 34.890625 14.25 C 34.890625 15.683594 36.050781 16.84375 37.484375 16.84375 C 38.914062 16.84375 40.078125 15.683594 40.078125 14.25 C 40.078125 14.15625 40.058594 14.070312 40.050781 13.976562 C 39.914062 15.28125 38.824219 16.300781 37.484375 16.300781 Z M 37.484375 16.300781 " fill-opacity="1" fill-rule="nonzero"/></g><g clip-path="url(#89a36a3098)"><path fill="#723600" d="M 49.847656 14.355469 C 49.847656 15.957031 48.550781 17.261719 46.949219 17.261719 C 45.347656 17.261719 44.046875 15.957031 44.046875 14.355469 C 44.046875 12.753906 45.347656 11.453125 46.949219 11.453125 C 48.550781 11.453125 49.847656 12.753906 49.847656 14.355469 Z M 49.847656 14.355469 " fill-opacity="1" fill-rule="nonzero"/></g><g clip-path="url(#47976ef44f)"><path fill="#d58600" d="M 48.582031 12.675781 C 48.503906 12.933594 48.078125 13.035156 47.640625 12.898438 C 47.199219 12.761719 46.902344 12.445312 46.984375 12.1875 C 47.0625 11.929688 47.480469 11.832031 47.925781 11.964844 C 48.367188 12.101562 48.660156 12.417969 48.582031 12.675781 Z M 48.582031 12.675781 " fill-opacity="1" fill-rule="nonzero"/></g><g clip-path="url(#7000eda909)"><path fill="#d58600" d="M 49.363281 13.324219 C 49.324219 13.449219 49.121094 13.496094 48.914062 13.429688 C 48.703125 13.367188 48.5625 13.214844 48.597656 13.089844 C 48.636719 12.96875 48.839844 12.921875 49.046875 12.988281 C 49.261719 13.050781 49.402344 13.203125 49.363281 13.324219 Z M 49.363281 13.324219 " fill-opacity="1" fill-rule="nonzero"/></g><g clip-path="url(#da074b49b3)"><path fill="#6b2800" d="M 47.054688 16.300781 C 45.714844 16.300781 44.625 15.28125 44.488281 13.976562 C 44.476562 14.070312 44.460938 14.15625 44.460938 14.25 C 44.460938 15.683594 45.621094 16.84375 47.054688 16.84375 C 48.484375 16.84375 49.644531 15.683594 49.644531 14.25 C 49.644531 14.15625 49.628906 14.070312 49.617188 13.976562 C 49.480469 15.28125 48.390625 16.300781 47.054688 16.300781 Z M 47.054688 16.300781 " fill-opacity="1" fill-rule="nonzero"/></g></svg>